<?xml version="1.0" encoding="UTF-8"?> <svg xmlns="http://www.w3.org/2000/svg" width="610" height="548" viewBox="0 0 610 548" fill="none"><path d="M179 0V548" stroke="url(#paint0_linear_380_1879)" stroke-width="3"></path><path d="M221 0V548" stroke="url(#paint1_linear_380_1879)" stroke-width="3"></path><path d="M263 0V548" stroke="url(#paint2_linear_380_1879)" stroke-width="3"></path><path d="M305 0V548" stroke="url(#paint3_linear_380_1879)" stroke-width="3"></path><path d="M347 0V548" stroke="url(#paint4_linear_380_1879)" stroke-width="3"></path><path d="M389 0V548" stroke="url(#paint5_linear_380_1879)" stroke-width="3"></path><path d="M431 0V548" stroke="url(#paint6_linear_380_1879)" stroke-width="3"></path><circle cx="306" cy="263" r="113" fill="#BB3037"></circle><circle cx="306" cy="253" r="113" fill="#CB333B"></circle><circle cx="305.5" cy="112.5" r="6.5" fill="#CB333B"></circle><circle cx="347.5" cy="90.5" r="6.5" fill="#CB333B"></circle><circle cx="432.5" cy="322.5" r="6.5" fill="#82D2FF"></circle><circle cx="179.5" cy="78.5" r="6.5" fill="#59C4FF"></circle><circle cx="179.5" cy="256.5" r="6.5" fill="#D8666C"></circle><circle cx="180" cy="373" r="82" fill="#C55F64"></circle><circle cx="180" cy="363" r="82" fill="#D8666C"></circle><circle cx="433" cy="113" r="31" fill="#CF8A8E"></circle><circle cx="433" cy="109" r="31" fill="#E5999D"></circle><circle cx="433" cy="111" r="15" fill="#45002B"></circle><path fill-rule="evenodd" clip-rule="evenodd" d="M433.478 93C442.604 93 450 100.396 450 109.478C450 118.604 442.604 126 433.478 126C424.396 126 417 118.604 417 109.478C417 100.396 424.396 93 433.478 93ZM434.646 111.295V117.696C436.073 117.264 437.241 116.053 437.241 114.496C437.241 112.895 436.073 111.684 434.646 111.295ZM432.354 107.705V101.304C430.883 101.737 429.759 102.904 429.759 104.505C429.759 106.105 430.927 107.273 432.354 107.705ZM434.646 97.3682V97.9738C437.933 98.4496 440.788 101.001 440.788 104.505C440.788 106.624 437.241 106.624 437.241 104.505C437.241 102.905 436.073 101.737 434.646 101.304V107.965C437.933 108.441 440.788 110.992 440.788 114.496C440.788 117.956 437.933 120.508 434.646 121.027V121.589C434.646 123.146 432.354 123.146 432.354 121.589V121.027C429.067 120.508 426.212 117.956 426.212 114.496C426.212 112.333 429.759 112.333 429.759 114.496C429.759 116.096 430.883 117.264 432.354 117.696V111.036C429.067 110.517 426.212 108.008 426.212 104.505C426.212 101.001 429.067 98.4496 432.354 97.9738V97.3682C432.354 95.8544 434.646 95.8544 434.646 97.3682Z" fill="#EEF9FF"></path><circle cx="180" cy="154" r="40" fill="#59B8ED"></circle><circle cx="431" cy="423" r="40" fill="#59B8ED"></circle><circle cx="180" cy="149" r="40" fill="#59C4FF"></circle><circle cx="431" cy="418" r="40" fill="#82D2FF"></circle><circle cx="181.5" cy="149.5" r="21.5" fill="#D5F0FF"></circle><path d="M203 149.5C203 154.023 201.574 158.431 198.924 162.096C196.274 165.762 192.535 168.498 188.24 169.916C183.945 171.334 179.312 171.361 175.001 169.994C170.689 168.627 166.919 165.935 164.226 162.301C161.533 158.667 160.055 154.276 160.001 149.753C159.948 145.231 161.323 140.806 163.929 137.11C166.536 133.413 170.242 130.633 174.52 129.165C178.798 127.696 183.43 127.614 187.757 128.931L181.5 149.5H203Z" fill="#062738" stroke="#59C4FF" stroke-width="2"></path><path fill-rule="evenodd" clip-rule="evenodd" d="M316.552 297.062L323.777 293.632L323.161 283.333L326.471 281.766C327.453 281.301 327.897 280.108 327.472 279.111C327.043 278.123 325.912 277.686 324.923 278.155L322.899 279.119L322.32 269.542L325.405 268.071C326.379 267.602 326.831 266.413 326.411 265.428C325.984 264.424 324.851 264.004 323.869 264.469L322.07 265.322L321.314 252.968C323.744 251.889 326.088 250.81 328.278 249.767C350.559 239.202 348.464 232.338 348.464 232.338C348.464 232.338 344.979 226.145 322.71 236.72C320.517 237.756 318.205 238.88 315.817 240.089L307.563 231.304L309.36 230.445C310.336 229.982 310.788 228.794 310.365 227.803C309.938 226.799 308.788 226.371 307.817 226.846L304.732 228.302L298.321 221.491L300.346 220.527C301.326 220.055 301.78 218.873 301.355 217.875C300.924 216.881 299.781 216.45 298.807 216.919L295.491 218.489L288.607 211.165L281.376 214.598L299.821 248.519C289.703 254.097 280.069 259.894 274.048 264.216L264.369 257.509L258.468 260.305L267.816 270.604L268.915 284.823L274.828 282.022L276.484 269.923C283.552 268.057 294.042 264.288 304.71 260L316.552 297.062Z" fill="#F2CCCE"></path><rect x="155" y="345" width="61" height="43" rx="5" fill="#45002B"></rect><rect x="149" y="339" width="59" height="41" rx="4" fill="#45002B" stroke="#D8666C" stroke-width="2"></rect><path d="M168 354C168 356.762 165.538 359 162.5 359C159.462 359 157 356.762 157 354C157 351.239 159.462 349 162.5 349C165.538 349 168 351.239 168 354Z" fill="#F2CCCE"></path><path d="M164.304 359H160.662C158.025 359 155.807 361.035 155.514 363.72L155.012 368.094C154.928 368.657 155.305 369.22 155.849 369.307C157.942 369.783 160.202 370 162.504 370C164.848 370 167.066 369.74 169.159 369.307C169.704 369.177 170.039 368.658 169.996 368.094L169.494 363.72C169.159 361.035 166.941 359 164.304 359Z" fill="#F2CCCE"></path><rect x="175" y="351" width="27" height="4" fill="#F2CCCE"></rect><rect x="175" y="358" width="23" height="4" fill="#F2CCCE"></rect><rect x="415.5" y="400.5" width="29" height="35" rx="1.5" stroke="#D5F0FF" stroke-width="3"></rect><path d="M447.606 441.663H422.53C422.161 441.663 421.806 441.504 421.545 441.222C421.284 440.939 421.137 440.556 421.137 440.156V406.998C421.137 406.598 421.284 406.215 421.545 405.932C421.806 405.649 422.161 405.49 422.53 405.49H439.248L448.999 416.041V440.156C448.999 440.354 448.963 440.55 448.893 440.733C448.823 440.916 448.72 441.082 448.591 441.222C448.461 441.362 448.308 441.473 448.139 441.548C447.97 441.624 447.789 441.663 447.606 441.663Z" fill="white"></path><path d="M438.551 405.49V416.794H449" fill="white"></path><path d="M438.551 405.49V416.794H449" stroke="#82D2FF" stroke-width="3" stroke-linecap="round" stroke-linejoin="round"></path><path d="M431.793 426.627H442.937" stroke="#062738" stroke-width="3" stroke-linecap="round" stroke-linejoin="round"></path><path d="M431.793 431.615H442.937" stroke="#062738" stroke-width="3" stroke-linecap="round" stroke-linejoin="round"></path><path d="M431.793 436.208H442.937" stroke="#062738" stroke-width="3" stroke-linecap="round" stroke-linejoin="round"></path><defs><linearGradient id="paint0_linear_380_1879" x1="179" y1="0" x2="179" y2="548" gradientUnits="userSpaceOnUse"><stop offset="0.0104167" stop-color="#ACE1FF" stop-opacity="0"></stop><stop offset="0.5" stop-color="#ACE1FF"></stop><stop offset="1" stop-color="#ACE1FF" stop-opacity="0"></stop></linearGradient><linearGradient id="paint1_linear_380_1879" x1="221" y1="0" x2="221" y2="548" gradientUnits="userSpaceOnUse"><stop offset="0.0104167" stop-color="#ACE1FF" stop-opacity="0"></stop><stop offset="0.5" stop-color="#ACE1FF"></stop><stop offset="1" stop-color="#ACE1FF" stop-opacity="0"></stop></linearGradient><linearGradient id="paint2_linear_380_1879" x1="263" y1="0" x2="263" y2="548" gradientUnits="userSpaceOnUse"><stop offset="0.0104167" stop-color="#ACE1FF" stop-opacity="0"></stop><stop offset="0.5" stop-color="#ACE1FF"></stop><stop offset="1" stop-color="#ACE1FF" stop-opacity="0"></stop></linearGradient><linearGradient id="paint3_linear_380_1879" x1="305" y1="0" x2="305" y2="548" gradientUnits="userSpaceOnUse"><stop offset="0.0104167" stop-color="#ACE1FF" stop-opacity="0"></stop><stop offset="0.5" stop-color="#ACE1FF"></stop><stop offset="1" stop-color="#ACE1FF" stop-opacity="0"></stop></linearGradient><linearGradient id="paint4_linear_380_1879" x1="347" y1="0" x2="347" y2="548" gradientUnits="userSpaceOnUse"><stop offset="0.0104167" stop-color="#ACE1FF" stop-opacity="0"></stop><stop offset="0.5" stop-color="#ACE1FF"></stop><stop offset="1" stop-color="#ACE1FF" stop-opacity="0"></stop></linearGradient><linearGradient id="paint5_linear_380_1879" x1="389" y1="0" x2="389" y2="548" gradientUnits="userSpaceOnUse"><stop offset="0.0104167" stop-color="#ACE1FF" stop-opacity="0"></stop><stop offset="0.5" stop-color="#ACE1FF"></stop><stop offset="1" stop-color="#ACE1FF" stop-opacity="0"></stop></linearGradient><linearGradient id="paint6_linear_380_1879" x1="431" y1="0" x2="431" y2="548" gradientUnits="userSpaceOnUse"><stop offset="0.0104167" stop-color="#ACE1FF" stop-opacity="0"></stop><stop offset="0.5" stop-color="#ACE1FF"></stop><stop offset="1" stop-color="#ACE1FF" stop-opacity="0"></stop></linearGradient></defs></svg> 